STARTFONT 2.1
FONT -FontForge-Fredoka One-Book-R-Normal--28-280-72-72-P-162-ISO10646-1
SIZE 28 72 72
FONTBOUNDINGBOX 37 34 -4 -7
COMMENT "Generated by fontforge, http://fontforge.sourceforge.net"
COMMENT "Copyright (c) 2011 Milena B Brandao (milenabbrandao@gmail.com), with Reserved Font Name "Fredoka""
STARTPROPERTIES 39
FOUNDRY "FontForge"
FAMILY_NAME "Fredoka One"
WEIGHT_NAME "Book"
SLANT "R"
SETWIDTH_NAME "Normal"
ADD_STYLE_NAME ""
PIXEL_SIZE 28
POINT_SIZE 280
RESOLUTION_X 72
RESOLUTION_Y 72
SPACING "P"
AVERAGE_WIDTH 162
CHARSET_REGISTRY "ISO10646"
CHARSET_ENCODING "1"
FONTNAME_REGISTRY ""
CHARSET_COLLECTIONS "ISO10646-1"
FONT_NAME "FredokaOne-Regular"
FACE_NAME "Fredoka One"
COPYRIGHT "Copyright (c) 2011 Milena B Brandao (milenabbrandao@gmail.com), with Reserved Font Name "Fredoka""
FONT_VERSION "1.001"
FONT_ASCENT 22
FONT_DESCENT 6
UNDERLINE_POSITION -3
UNDERLINE_THICKNESS 2
X_HEIGHT 14
CAP_HEIGHT 20
RAW_ASCENT 800
RAW_DESCENT 200
NORM_SPACE 7
RELATIVE_WEIGHT 40
RELATIVE_SETWIDTH 50
SUPERSCRIPT_X 0
SUPERSCRIPT_Y 13
SUPERSCRIPT_SIZE 18
SUBSCRIPT_X 0
SUBSCRIPT_Y 3
SUBSCRIPT_SIZE 18
AVG_LOWERCASE_WIDTH 160
AVG_UPPERCASE_WIDTH 192
ENDPROPERTIES
CHARS 235
STARTCHAR space
ENCODING 32
SWIDTH 253 0
DWIDTH 7 0
BBX 1 1 0 0
BITMAP
00
ENDCHAR
STARTCHAR exclam
ENCODING 33
SWIDTH 267 0
DWIDTH 7 0
BBX 5 21 1 0
BITMAP
70
F8
F8
F8
F8
F8
F8
F8
F8
F8
F8
F8
F8
30
00
00
78
F8
F8
F8
78
ENDCHAR
STARTCHAR quotedbl
ENCODING 34
SWIDTH 429 0
DWIDTH 12 0
BBX 10 10 1 11
BITMAP
4080
F3C0
F3C0
F3C0
F3C0
F3C0
F3C0
F3C0
E180
6180
ENDCHAR
STARTCHAR numbersign
ENCODING 35
SWIDTH 749 0
DWIDTH 21 0
BBX 21 20 0 0
BITMAP
03C3C0
03C3C0
03C3C0
03C3C0
03C3C0
3FFFF0
3FFFF8
3FFFF0
3FFFE0
078780
078780
0F0780
7FFFE0
FFFFE0
FFFFE0
0F0F00
0F0F00
1E0F00
1E1E00
1E0E00
ENDCHAR
STARTCHAR dollar
ENCODING 36
SWIDTH 475 0
DWIDTH 13 0
BBX 12 24 1 -2
BITMAP
0400
0E00
0E00
0E00
3F80
7FC0
7FE0
FBC0
F080
F000
FE00
7FC0
3FE0
0FE0
01F0
E0F0
F1E0
FFE0
7FE0
3F80
0E00
0E00
0E00
0E00
ENDCHAR
STARTCHAR percent
ENCODING 37
SWIDTH 838 0
DWIDTH 23 0
BBX 21 23 1 -1
BITMAP
000180
0C01C0
3F0380
7F8300
FF8700
E38600
E3CE00
E3CC00
FF9C00
7FB800
7F3800
1E7000
0073F0
00E7F8
00EFF8
01CE38
01CE38
038E38
038F78
070FF8
0607F0
0E03E0
040000
ENDCHAR
STARTCHAR ampersand
ENCODING 38
SWIDTH 748 0
DWIDTH 21 0
BBX 19 22 1 0
BITMAP
010000
0FF000
1FF800
3FF800
3E7C00
3C7C00
3C7C00
3FF800
3FF800
1FF000
1FC000
3F8000
7FC3C0
FFC7C0
FFE7C0
FBFF80
F9FF80
F8FFC0
FFFFE0
FFFFE0
7FFFE0
1FE3E0
ENDCHAR
STARTCHAR quotesingle
ENCODING 39
SWIDTH 208 0
DWIDTH 6 0
BBX 4 10 1 11
BITMAP
40
F0
F0
F0
F0
F0
F0
F0
E0
60
ENDCHAR
STARTCHAR parenleft
ENCODING 40
SWIDTH 384 0
DWIDTH 11 0
BBX 9 28 1 -6
BITMAP
0380
0F80
1F80
3F80
3C00
7C00
7800
7800
F800
F000
F000
F000
F000
F000
F000
F000
F000
F000
F000
F000
7800
7800
7800
3C00
3E00
1F80
1F80
0780
ENDCHAR
STARTCHAR parenright
ENCODING 41
SWIDTH 384 0
DWIDTH 11 0
BBX 10 28 0 -6
BITMAP
6000
FC00
FE00
7E00
1F00
0F00
0780
0780
0780
0780
07C0
03C0
03C0
03C0
03C0
03C0
03C0
03C0
07C0
0780
0780
0780
0F80
0F00
1F00
7E00
FC00
7800
ENDCHAR
STARTCHAR asterisk
ENCODING 42
SWIDTH 503 0
DWIDTH 14 0
BBX 14 13 0 8
BITMAP
0780
0780
0780
77B8
7FF8
FFFC
FFFC
3FF0
1FE0
3FF0
3FF0
3CF0
1CE0
ENDCHAR
STARTCHAR plus
ENCODING 43
SWIDTH 527 0
DWIDTH 15 0
BBX 13 13 1 1
BITMAP
0F00
0F80
0F80
0F80
FFF0
FFF8
FFF8
FFF8
7FE0
0F80
0F80
0F80
0700
ENDCHAR
STARTCHAR comma
ENCODING 44
SWIDTH 238 0
DWIDTH 7 0
BBX 5 9 1 -4
BITMAP
F8
F8
F8
F8
F8
70
70
E0
E0
ENDCHAR
STARTCHAR hyphen
ENCODING 45
SWIDTH 433 0
DWIDTH 12 0
BBX 10 4 1 4
BITMAP
FFC0
FFC0
FFC0
FFC0
ENDCHAR
STARTCHAR period
ENCODING 46
SWIDTH 237 0
DWIDTH 7 0
BBX 5 5 1 0
BITMAP
F8
F8
F8
F8
F0
ENDCHAR
STARTCHAR slash
ENCODING 47
SWIDTH 526 0
DWIDTH 15 0
BBX 14 24 0 -2
BITMAP
0038
003C
007C
007C
00F8
00F8
01F8
01F0
03F0
03E0
07E0
07C0
0FC0
0F80
0F80
1F00
1F00
3E00
3E00
7C00
7C00
F800
7800
1000
ENDCHAR
STARTCHAR zero
ENCODING 48
SWIDTH 608 0
DWIDTH 17 0
BBX 15 21 1 0
BITMAP
07C0
1FF0
3FF8
7FFC
7FFC
FC7E
F83E
F83E
F83E
F83E
F83E
F83E
F83E
F83E
F83E
FC7E
7FFC
7FFC
3FF8
3FF8
0FE0
ENDCHAR
STARTCHAR one
ENCODING 49
SWIDTH 407 0
DWIDTH 11 0
BBX 10 21 0 0
BITMAP
0180
03C0
07C0
1FC0
3FC0
7FC0
7FC0
FFC0
7FC0
37C0
07C0
07C0
07C0
07C0
07C0
07C0
07C0
07C0
07C0
07C0
03C0
ENDCHAR
STARTCHAR two
ENCODING 50
SWIDTH 609 0
DWIDTH 17 0
BBX 16 21 1 0
BITMAP
0780
1FF0
3FF8
7FF8
FFFC
FC7C
F83E
F83E
F83E
F07E
00FC
01FC
07F8
1FF0
3FE0
7F80
FFFE
FFFF
FFFF
FFFF
7FFE
ENDCHAR
STARTCHAR three
ENCODING 51
SWIDTH 608 0
DWIDTH 17 0
BBX 15 21 1 0
BITMAP
07C0
1FF0
3FF8
7FFC
7FFC
7C7E
783E
107E
03FC
07FC
07F8
07FC
01FE
703E
F83E
F83E
FEFE
FFFE
7FFC
3FF8
1FF0
ENDCHAR
STARTCHAR four
ENCODING 52
SWIDTH 592 0
DWIDTH 17 0
BBX 15 21 0 0
BITMAP
0808
1F1E
1F3E
1F3E
3E3E
3E3E
3E3E
3E3E
7C3E
7C3E
7FFE
7FFE
FFFE
FFFE
7FFE
003E
003E
003E
003E
001E
001E
ENDCHAR
STARTCHAR five
ENCODING 53
SWIDTH 530 0
DWIDTH 15 0
BBX 14 21 0 0
BITMAP
0FF0
3FFC
3FFC
3FFC
3FF8
7E00
7C00
7F00
7FE0
7FF0
7FF8
7FFC
3CFC
087C
007C
387C
7FFC
FFF8
7FF8
3FF0
1FE0
ENDCHAR
STARTCHAR six
ENCODING 54
SWIDTH 560 0
DWIDTH 16 0
BBX 14 21 1 0
BITMAP
0020
03F8
0FF8
1FF8
3FF8
3FC0
7E00
7C00
F800
FFC0
FFF0
FFF8
FFF8
FCFC
F87C
F87C
FCFC
7FF8
7FF8
3FF0
1FE0
ENDCHAR
STARTCHAR seven
ENCODING 55
SWIDTH 561 0
DWIDTH 16 0
BBX 15 21 0 0
BITMAP
1FF8
7FFE
FFFE
FFFE
7FFE
007E
007C
00FC
01F8
01F8
03F0
03E0
07E0
07C0
0FC0
0F80
0F80
1F00
1F00
1F00
0F00
ENDCHAR
STARTCHAR eight
ENCODING 56
SWIDTH 582 0
DWIDTH 16 0
BBX 15 21 1 0
BITMAP
07C0
1FE0
3FF8
7FF8
7FFC
FC7C
F87C
FCFC
7FF8
7FF8
7FF8
7FFC
FEFC
F87C
F83E
F87E
FCFC
FFFC
7FF8
3FF0
1FE0
ENDCHAR
STARTCHAR nine
ENCODING 57
SWIDTH 560 0
DWIDTH 16 0
BBX 14 21 1 0
BITMAP
0780
3FE0
7FF0
7FF8
FFF8
F87C
F87C
F87C
FFFC
FFFC
7FFC
3FFC
0EF8
00F8
01F8
03F0
7FF0
FFE0
FFC0
FF80
7C00
ENDCHAR
STARTCHAR colon
ENCODING 58
SWIDTH 238 0
DWIDTH 7 0
BBX 5 14 1 0
BITMAP
F0
F8
F8
F8
F0
00
00
00
00
F8
F8
F8
F8
F0
ENDCHAR
STARTCHAR semicolon
ENCODING 59
SWIDTH 237 0
DWIDTH 7 0
BBX 5 18 1 -4
BITMAP
F0
F8
F8
F8
F0
00
00
00
00
F8
F8
F8
F8
F8
70
70
E0
E0
ENDCHAR
STARTCHAR less
ENCODING 60
SWIDTH 627 0
DWIDTH 18 0
BBX 17 19 0 0
BITMAP
000700
001F80
003F80
00FF80
03FE00
07FC00
1FF000
7FC000
7F8000
FE0000
7F8000
3FE000
0FF000
07FC00
01FF00
007F80
003F80
000F80
000300
ENDCHAR
STARTCHAR equal
ENCODING 61
SWIDTH 478 0
DWIDTH 13 0
BBX 12 10 1 1
BITMAP
FFF0
FFF0
FFF0
FFE0
0000
0000
FFE0
FFF0
FFF0
FFE0
ENDCHAR
STARTCHAR greater
ENCODING 62
SWIDTH 627 0
DWIDTH 18 0
BBX 17 19 0 0
BITMAP
700000
7C0000
FF0000
7F8000
3FE000
0FF800
03FC00
01FF00
007F80
003F80
007F80
01FF00
07FC00
1FF000
3FE000
7F8000
FE0000
7C0000
300000
ENDCHAR
STARTCHAR question
ENCODING 63
SWIDTH 512 0
DWIDTH 14 0
BBX 14 21 0 0
BITMAP
0FC0
3FE0
3FF0
7FF8
7FF8
F87C
787C
007C
01F8
03F8
07F0
07C0
0780
0300
0000
0000
0780
0FC0
0FC0
0FC0
0780
ENDCHAR
STARTCHAR at
ENCODING 64
SWIDTH 908 0
DWIDTH 25 0
BBX 24 23 1 -4
BITMAP
007C00
03FF80
0FFFE0
1FFFF8
3F00F8
7C003C
78FF9E
F1FF9E
F3FF8E
E3CF0F
E3870F
E78F0F
E3DF0F
E3FF0F
F3FF0E
F1FF1E
780F7E
780FFC
3E07F8
3FF3E0
1FF000
07F000
006000
ENDCHAR
STARTCHAR A
ENCODING 65
SWIDTH 765 0
DWIDTH 21 0
BBX 21 21 0 0
BITMAP
002000
007800
00F800
00FC00
01FC00
01FE00
03FE00
03FF00
07FF00
07DF80
0FCF80
0F8FC0
1FFFC0
1FFFE0
3FFFE0
3FFFF0
7FFFF0
7C01F0
FC01F8
7800F8
3800F0
ENDCHAR
STARTCHAR B
ENCODING 66
SWIDTH 646 0
DWIDTH 18 0
BBX 16 21 1 0
BITMAP
3FC0
FFF8
FFFC
FFFE
FFFE
F87F
F81F
F81F
F8FE
F9FE
F9FE
F9FF
F81F
F81F
F81F
F81F
FFFF
FFFF
FFFE
FFFC
7FF0
ENDCHAR
STARTCHAR C
ENCODING 67
SWIDTH 679 0
DWIDTH 19 0
BBX 17 21 1 0
BITMAP
007000
07FE00
0FFF80
1FFF80
3FFF80
7F8F80
FE0200
FC0000
F80000
F80000
F80000
F80000
F80000
F80000
FC0000
7E0700
7FFF80
3FFF80
1FFF80
0FFF00
03FC00
ENDCHAR
STARTCHAR D
ENCODING 68
SWIDTH 704 0
DWIDTH 20 0
BBX 18 21 1 0
BITMAP
3F0000
FFF000
FFFC00
FFFE00
FFFF00
F8FF80
F81F80
F80FC0
F807C0
F807C0
F807C0
F807C0
F807C0
F80FC0
F81F80
F83F80
FFFF00
FFFE00
FFFC00
FFF800
7FE000
ENDCHAR
STARTCHAR E
ENCODING 69
SWIDTH 638 0
DWIDTH 18 0
BBX 16 21 1 0
BITMAP
3FFE
FFFF
FFFF
FFFF
FFFF
F800
F800
F800
FFF0
FFF8
FFF8
FFF8
FFF8
F800
F800
F800
FFFF
FFFF
FFFF
FFFF
7FFF
ENDCHAR
STARTCHAR F
ENCODING 70
SWIDTH 637 0
DWIDTH 18 0
BBX 16 21 1 0
BITMAP
3FFE
FFFF
FFFF
FFFF
FFFF
F800
F800
F800
FFF0
FFF8
FFF8
FFF8
FFF8
F800
F800
F800
F800
F800
F800
F800
7800
ENDCHAR
STARTCHAR G
ENCODING 71
SWIDTH 714 0
DWIDTH 20 0
BBX 18 21 1 0
BITMAP
01F800
07FE00
1FFF80
3FFF80
3FFF80
7F0F00
FC0200
F80000
F80000
F87FC0
F87FC0
F87FC0
F87FC0
F807C0
FC07C0
7E07C0
7FFFC0
3FFFC0
1FFF80
0FFF00
03FE00
ENDCHAR
STARTCHAR H
ENCODING 72
SWIDTH 699 0
DWIDTH 20 0
BBX 17 21 1 0
BITMAP
200300
F80780
F80F80
F80F80
F80F80
F80F80
F80F80
F80F80
F80F80
FFFF80
FFFF80
FFFF80
FFFF80
F80F80
F80F80
F80F80
F80F80
F80F80
F80F80
F80780
780780
ENDCHAR
STARTCHAR I
ENCODING 73
SWIDTH 257 0
DWIDTH 7 0
BBX 5 21 1 0
BITMAP
20
F8
F8
F8
F8
F8
F8
F8
F8
F8
F8
F8
F8
F8
F8
F8
F8
F8
F8
F8
78
ENDCHAR
STARTCHAR J
ENCODING 74
SWIDTH 549 0
DWIDTH 15 0
BBX 14 21 0 0
BITMAP
0018
003C
007C
007C
007C
007C
007C
007C
007C
007C
007C
007C
007C
007C
107C
787C
7FFC
FFF8
7FF8
3FF0
1FC0
ENDCHAR
STARTCHAR K
ENCODING 75
SWIDTH 639 0
DWIDTH 18 0
BBX 16 21 1 0
BITMAP
200C
F81E
F83F
F87F
F8FE
F8FC
F9F8
FBF0
FFE0
FFC0
FF80
FFC0
FFE0
FFF0
FBF8
F9FC
F8FE
F87E
F83F
F81F
780E
ENDCHAR
STARTCHAR L
ENCODING 76
SWIDTH 587 0
DWIDTH 16 0
BBX 15 21 1 0
BITMAP
2000
F800
F800
F800
F800
F800
F800
F800
F800
F800
F800
F800
F800
F800
F800
F800
F800
FFFC
FFFE
FFFE
7FFC
ENDCHAR
STARTCHAR M
ENCODING 77
SWIDTH 870 0
DWIDTH 24 0
BBX 22 21 1 0
BITMAP
200010
F8007C
FC007C
FE00FC
FE01FC
FF03FC
FF87FC
FFC7FC
FFCFFC
FFFFFC
FBFF7C
F9FF7C
F8FE7C
F8FC7C
F8787C
F8307C
F8007C
F8007C
F8007C
F8007C
70003C
ENDCHAR
STARTCHAR N
ENCODING 78
SWIDTH 720 0
DWIDTH 20 0
BBX 18 21 1 0
BITMAP
200100
F807C0
FC07C0
FE07C0
FE07C0
FF07C0
FF87C0
FF87C0
FFC7C0
FFE7C0
FBF7C0
F9F7C0
F9FFC0
F8FFC0
F87FC0
F83FC0
F83FC0
F81FC0
F80FC0
F807C0
7803C0
ENDCHAR
STARTCHAR O
ENCODING 79
SWIDTH 775 0
DWIDTH 22 0
BBX 20 21 1 0
BITMAP
00F000
07FE00
0FFF00
3FFF80
3FFFC0
7F1FE0
7E07E0
FC03F0
F801F0
F801F0
F801F0
F801F0
F801F0
F803F0
FC03E0
7E07E0
7FFFC0
3FFFC0
1FFF80
0FFF00
03FC00
ENDCHAR
STARTCHAR P
ENCODING 80
SWIDTH 632 0
DWIDTH 18 0
BBX 16 21 1 0
BITMAP
3F80
FFF0
FFFC
FFFE
FFFE
F87F
F81F
F81F
F81F
F81F
FFFF
FFFE
FFFC
FFF8
FFF0
F800
F800
F800
F800
F800
7800
ENDCHAR
STARTCHAR Q
ENCODING 81
SWIDTH 830 0
DWIDTH 23 0
BBX 22 21 1 0
BITMAP
00F000
07FE00
0FFF00
3FFF80
3FFFC0
7F1FE0
7E07E0
FC03F0
F801F0
F801F0
F801F0
F801F0
F801F0
F803F0
FC03E0
7E07E0
7FFFF8
3FFFFC
1FFFFC
0FFFF8
03FC38
ENDCHAR
STARTCHAR R
ENCODING 82
SWIDTH 631 0
DWIDTH 18 0
BBX 16 21 1 0
BITMAP
3F80
FFF0
FFFC
FFFE
FFFE
F87F
F81F
F81F
F81F
F81F
FFFF
FFFE
FFFE
FFFC
FFFE
F83E
F83E
F83F
F81F
F81F
780E
ENDCHAR
STARTCHAR S
ENCODING 83
SWIDTH 583 0
DWIDTH 16 0
BBX 15 21 1 0
BITMAP
0780
3FF0
7FF8
7FF8
FFF8
F870
F800
FC00
FF80
7FF0
3FF8
1FFC
03FC
007E
703E
F87E
FCFC
FFFC
7FF8
3FF0
1FE0
ENDCHAR
STARTCHAR T
ENCODING 84
SWIDTH 731 0
DWIDTH 20 0
BBX 20 21 0 0
BITMAP
3FFFC0
FFFFF0
FFFFF0
7FFFF0
3FFFC0
00F800
00F800
00F800
00F800
00F800
00F800
00F800
00F800
00F800
00F800
00F800
00F800
00F800
00F800
00F800
00F000
ENDCHAR
STARTCHAR U
ENCODING 85
SWIDTH 726 0
DWIDTH 20 0
BBX 18 21 1 0
BITMAP
300100
F807C0
F807C0
F807C0
F807C0
F807C0
F807C0
F807C0
F807C0
F807C0
F807C0
F807C0
F807C0
F807C0
7C0FC0
7E0F80
7FFF80
3FFF00
1FFF00
0FFE00
07F800
ENDCHAR
STARTCHAR V
ENCODING 86
SWIDTH 783 0
DWIDTH 22 0
BBX 22 21 0 0
BITMAP
100020
780078
FC00FC
7C00F8
7E01F8
3E01F0
3E03F0
1F03E0
1F03E0
0F87C0
0F87C0
07CF80
07CF80
03FF00
03FF00
01FE00
01FE00
00FC00
00FC00
007800
007800
ENDCHAR
STARTCHAR W
ENCODING 87
SWIDTH 999 0
DWIDTH 28 0
BBX 28 21 0 0
BITMAP
10020080
780F01E0
FC1F03F0
7C1F83E0
7C1F83E0
7E3F87E0
3E3FC7C0
3E3FC7C0
3E7FCFC0
1F7FEF80
1F7FEF80
1FF9FF80
0FF9FF00
0FF9FF00
0FF0FF00
07F0FE00
07F0FE00
07E07C00
03E07C00
03E07C00
01C03800
ENDCHAR
STARTCHAR X
ENCODING 88
SWIDTH 741 0
DWIDTH 21 0
BBX 20 21 0 0
BITMAP
3800E0
7801F0
FC03F0
7E03F0
7F07E0
3F8FC0
1FDF80
0FFF80
07FF00
03FE00
01FC00
03FE00
07FE00
0FFF00
1FDF80
1F8FC0
3F07E0
7E07F0
FE03F0
7C01F0
3800E0
ENDCHAR
STARTCHAR Y
ENCODING 89
SWIDTH 686 0
DWIDTH 19 0
BBX 19 21 0 0
BITMAP
300180
7803C0
FC07E0
7C07E0
7E0FC0
3F1F80
1F1F80
1FBF00
0FFE00
07FE00
07FC00
03F800
01F800
01F000
01F000
01F000
01F000
01F000
01F000
01F000
00F000
ENDCHAR
STARTCHAR Z
ENCODING 90
SWIDTH 643 0
DWIDTH 18 0
BBX 16 21 1 0
BITMAP
7FFC
FFFE
FFFF
FFFF
FFFE
007E
00FC
01F8
03F0
03F0
07E0
0FC0
0FC0
1F80
3F00
7E00
7FFE
FFFF
FFFF
FFFF
7FFF
ENDCHAR
STARTCHAR bracketleft
ENCODING 91
SWIDTH 348 0
DWIDTH 10 0
BBX 8 28 1 -6
BITMAP
7F
FF
FF
FF
F8
F8
F8
F8
F8
F8
F8
F8
F8
F8
F8
F8
F8
F8
F8
F8
F8
F8
F8
F8
FF
FF
FF
FF
ENDCHAR
STARTCHAR backslash
ENCODING 92
SWIDTH 528 0
DWIDTH 15 0
BBX 14 24 0 -2
BITMAP
3000
7800
FC00
7C00
7C00
3E00
3E00
1F00
1F00
0F80
0F80
07C0
07C0
03E0
03E0
01F0
01F0
00F8
00F8
007C
007C
007C
003C
0010
ENDCHAR
STARTCHAR bracketright
ENCODING 93
SWIDTH 348 0
DWIDTH 10 0
BBX 9 28 0 -6
BITMAP
7F00
FF00
FF80
7F80
0F80
0F80
0F80
0F80
0F80
0F80
0F80
0F80
0F80
0F80
0F80
0F80
0F80
0F80
0F80
0F80
0F80
0F80
0F80
0F80
7F80
FF80
FF80
7F00
ENDCHAR
STARTCHAR asciicircum
ENCODING 94
SWIDTH 526 0
DWIDTH 15 0
BBX 13 8 1 7
BITMAP
0700
0F80
1FC0
3FE0
7FF0
F9F8
F0F0
6070
ENDCHAR
STARTCHAR underscore
ENCODING 95
SWIDTH 826 0
DWIDTH 23 0
BBX 23 3 0 -6
BITMAP
FFFFFE
FFFFFE
7FFFFE
ENDCHAR
STARTCHAR grave
ENCODING 96
SWIDTH 482 0
DWIDTH 14 0
BBX 8 6 3 16
BITMAP
40
F8
FF
FF
7F
0E
ENDCHAR
STARTCHAR a
ENCODING 97
SWIDTH 596 0
DWIDTH 17 0
BBX 15 15 1 0
BITMAP
071C
1FBC
3FFE
7FFE
FFFE
FCFE
F87E
F87E
F87E
FC7E
FFFE
7FFE
3FFE
1FFE
0FBC
ENDCHAR
STARTCHAR b
ENCODING 98
SWIDTH 592 0
DWIDTH 17 0
BBX 15 22 1 0
BITMAP
7000
F800
F800
F800
F800
F800
F800
F9C0
FFF0
FFF8
FFFC
FFFC
FC7E
F83E
F83E
F83E
FC7E
FFFC
FFFC
FFF8
FFF0
73C0
ENDCHAR
STARTCHAR c
ENCODING 99
SWIDTH 517 0
DWIDTH 14 0
BBX 13 15 1 0
BITMAP
07C0
1FF0
3FF8
7FF8
FFF0
FC70
F800
F800
F800
FC60
FFF0
7FF8
7FF8
1FF0
0FC0
ENDCHAR
STARTCHAR d
ENCODING 100
SWIDTH 598 0
DWIDTH 17 0
BBX 15 22 1 0
BITMAP
001C
003E
003E
003E
003E
003E
003E
073E
1FFE
3FFE
7FFE
7FFE
FCFE
F87E
F83E
F87E
FC7E
FFFE
7FFE
3FFE
1FFE
0FBC
ENDCHAR
STARTCHAR e
ENCODING 101
SWIDTH 573 0
DWIDTH 16 0
BBX 14 15 1 0
BITMAP
0FE0
1FF0
3FF8
7FFC
FEFC
F87C
F87C
FFFC
FFF8
F800
FC10
7FF8
7FFC
3FFC
0FF8
ENDCHAR
STARTCHAR f
ENCODING 102
SWIDTH 450 0
DWIDTH 13 0
BBX 12 22 0 0
BITMAP
00C0
07E0
0FE0
0FE0
1FE0
1F00
1F00
3FE0
7FF0
FFF0
FFF0
7FF0
1F00
1F00
1F00
1F00
1F00
1F00
1F00
1F00
1F00
1E00
ENDCHAR
STARTCHAR g
ENCODING 103
SWIDTH 585 0
DWIDTH 16 0
BBX 14 21 1 -6
BITMAP
063C
1FBC
3FFC
7FFC
FFFC
F8FC
F87C
F07C
F87C
FCFC
FFFC
7FFC
3FFC
1FFC
047C
107C
38FC
7FFC
7FF8
3FF0
1FC0
ENDCHAR
STARTCHAR h
ENCODING 104
SWIDTH 605 0
DWIDTH 17 0
BBX 15 22 1 0
BITMAP
7000
F800
F800
F800
F800
F800
F800
F9C0
FFF0
FFF8
FFFC
FFFC
FC7E
F83E
F83E
F83E
F83E
F83E
F83E
F83E
F83E
783C
ENDCHAR
STARTCHAR i
ENCODING 105
SWIDTH 255 0
DWIDTH 7 0
BBX 5 22 1 0
BITMAP
70
F8
F8
F8
F8
00
00
70
F8
F8
F8
F8
F8
F8
F8
F8
F8
F8
F8
F8
F8
78
ENDCHAR
STARTCHAR j
ENCODING 106
SWIDTH 252 0
DWIDTH 7 0
BBX 10 28 -4 -6
BITMAP
0300
07C0
07C0
07C0
07C0
0000
0000
0380
07C0
07C0
07C0
07C0
07C0
07C0
07C0
07C0
07C0
07C0
07C0
07C0
07C0
07C0
07C0
1FC0
FF80
FF00
FF00
7C00
ENDCHAR
STARTCHAR k
ENCODING 107
SWIDTH 536 0
DWIDTH 15 0
BBX 14 22 1 0
BITMAP
6000
F800
F800
F800
F800
F800
F800
F800
F860
F9F0
FBF8
FFF0
FFE0
FFC0
FF80
FFC0
FFE0
FFF0
FBF8
F9FC
F8F8
7830
ENDCHAR
STARTCHAR l
ENCODING 108
SWIDTH 327 0
DWIDTH 9 0
BBX 8 22 1 0
BITMAP
70
F8
F8
F8
F8
F8
F8
F8
F8
F8
F8
F8
F8
F8
F8
F8
F8
FE
FF
7F
7F
3E
ENDCHAR
STARTCHAR m
ENCODING 109
SWIDTH 851 0
DWIDTH 24 0
BBX 22 15 1 0
BITMAP
71C1C0
FFE7F0
FFFFF8
FFFFF8
FFFFF8
FCFCFC
F8FC7C
F8F87C
F8F87C
F8F87C
F8F87C
F8F87C
F8F87C
F8787C
787878
ENDCHAR
STARTCHAR n
ENCODING 110
SWIDTH 606 0
DWIDTH 17 0
BBX 15 15 1 0
BITMAP
71C0
FFF0
FFF8
FFFC
FFFC
FC7E
F83E
F83E
F83E
F83E
F83E
F83E
F83E
F83E
703C
ENDCHAR
STARTCHAR o
ENCODING 111
SWIDTH 600 0
DWIDTH 17 0
BBX 15 15 1 0
BITMAP
0FC0
1FF0
3FF8
7FFC
FFFC
FC7E
F83E
F83E
F83E
F87E
FFFE
7FFC
3FF8
1FF0
0FE0
ENDCHAR
STARTCHAR p
ENCODING 112
SWIDTH 582 0
DWIDTH 16 0
BBX 15 21 1 -6
BITMAP
71C0
FFF0
FFF8
FFF8
FFFC
FC7C
F83E
F83E
F83E
FC7C
FFFC
FFF8
FFF8
FFE0
F880
F800
F800
F800
F800
F800
F800
ENDCHAR
STARTCHAR q
ENCODING 113
SWIDTH 582 0
DWIDTH 16 0
BBX 14 21 1 -6
BITMAP
0618
1FFC
3FFC
7FFC
FFFC
FCFC
F87C
F07C
F87C
FCFC
FFFC
7FFC
3FFC
1FFC
067C
007C
007C
007C
007C
007C
003C
ENDCHAR
STARTCHAR r
ENCODING 114
SWIDTH 457 0
DWIDTH 13 0
BBX 11 15 1 0
BITMAP
71C0
FFE0
FFE0
FFE0
FFE0
FC00
F800
F800
F800
F800
F800
F800
F800
F800
7800
ENDCHAR
STARTCHAR s
ENCODING 115
SWIDTH 489 0
DWIDTH 14 0
BBX 12 15 1 0
BITMAP
1F80
7FE0
7FE0
FFE0
F840
FC00
7FC0
7FE0
3FF0
0FF0
61F0
FFF0
FFF0
FFE0
3FC0
ENDCHAR
STARTCHAR t
ENCODING 116
SWIDTH 449 0
DWIDTH 13 0
BBX 12 20 0 0
BITMAP
0E00
1F00
1F00
1F00
1F00
7FE0
7FF0
FFF0
FFF0
7FF0
1F00
1F00
1F00
1F00
1F00
1FC0
1FE0
0FE0
0FE0
03E0
ENDCHAR
STARTCHAR u
ENCODING 117
SWIDTH 606 0
DWIDTH 17 0
BBX 15 15 1 0
BITMAP
701C
F83E
F83E
F83E
F83E
F83E
F83E
F83E
F83E
FC7E
7FFE
7FFE
3FFE
1FFE
0F3C
ENDCHAR
STARTCHAR v
ENCODING 118
SWIDTH 638 0
DWIDTH 18 0
BBX 17 15 0 0
BITMAP
380700
780780
FC0F80
7C0F80
7E1F80
3E3F00
3F3E00
1F7E00
0FFC00
0FFC00
07F800
07F800
03F000
01E000
01E000
ENDCHAR
STARTCHAR w
ENCODING 119
SWIDTH 793 0
DWIDTH 22 0
BBX 22 15 0 0
BITMAP
383030
78787C
FC7C7C
7CFCF8
7CFCF8
3FFFF8
3FFFF0
3FFFF0
1FFFE0
1FFFE0
0FCFE0
0FCFC0
0FC7C0
078780
038380
ENDCHAR
STARTCHAR x
ENCODING 120
SWIDTH 567 0
DWIDTH 16 0
BBX 15 15 0 0
BITMAP
300C
781E
FC3E
7E7E
7FFC
3FF8
1FF0
0FE0
0FF0
1FF8
3FFC
7FFE
FE7E
7C3E
301C
ENDCHAR
STARTCHAR y
ENCODING 121
SWIDTH 604 0
DWIDTH 17 0
BBX 16 22 0 -7
BITMAP
380E
780F
FC1F
7C1F
7E3F
3F3E
1F7E
1FFC
0FFC
0FF8
07F8
03F8
03F0
03F0
03E0
07E0
07C0
07C0
0F80
0F80
0F80
0200
ENDCHAR
STARTCHAR z
ENCODING 122
SWIDTH 586 0
DWIDTH 16 0
BBX 15 15 1 0
BITMAP
7FF8
FFFC
FFFC
FFFC
7FFC
03F0
07E0
0FC0
1F80
3F00
7FFC
FFFE
FFFE
FFFE
7FFC
ENDCHAR
STARTCHAR braceleft
ENCODING 123
SWIDTH 381 0
DWIDTH 11 0
BBX 10 28 0 -6
BITMAP
0180
07C0
0FC0
0FC0
0F00
0F00
0F00
0F00
0F00
0F00
0F00
1F00
7E00
FE00
FC00
7E00
3E00
0F00
0F00
0F00
0F00
0F00
0F00
0F00
0F80
0FC0
07C0
03C0
ENDCHAR
STARTCHAR bar
ENCODING 124
SWIDTH 217 0
DWIDTH 6 0
BBX 4 29 1 -7
BITMAP
60
F0
F0
F0
F0
F0
F0
F0
F0
F0
F0
F0
F0
F0
F0
F0
F0
F0
F0
F0
F0
F0
F0
F0
F0
F0
F0
F0
20
ENDCHAR
STARTCHAR braceright
ENCODING 125
SWIDTH 381 0
DWIDTH 11 0
BBX 10 28 0 -6
BITMAP
2000
F800
FC00
7E00
1E00
1E00
1E00
1E00
1E00
1E00
1E00
1E00
1FC0
0FC0
0FC0
0FC0
1F00
1E00
1E00
1E00
1E00
1E00
1E00
1E00
7E00
FE00
FC00
7800
ENDCHAR
STARTCHAR asciitilde
ENCODING 126
SWIDTH 651 0
DWIDTH 18 0
BBX 15 7 1 4
BITMAP
0408
3F9C
7FFE
7FFE
FFFC
79F8
1060
ENDCHAR
STARTCHAR exclamdown
ENCODING 161
SWIDTH 268 0
DWIDTH 8 0
BBX 5 20 1 -6
BITMAP
F8
F8
F8
F8
78
00
00
78
F8
F8
F8
F8
F8
F8
F8
F8
F8
F8
F8
F8
ENDCHAR
STARTCHAR cent
ENCODING 162
SWIDTH 434 0
DWIDTH 12 0
BBX 10 21 1 -2
BITMAP
0600
0E00
0E00
0E00
0E00
1F80
3FC0
7FC0
FFC0
F180
F000
F000
F080
FFC0
7FC0
3FC0
1F80
0E00
0E00
0E00
0E00
ENDCHAR
STARTCHAR sterling
ENCODING 163
SWIDTH 675 0
DWIDTH 19 0
BBX 18 21 0 0
BITMAP
003000
01FF00
07FF80
0FFFC0
0FFFC0
1F87C0
1F0100
1F0000
1E0000
7FF000
FFF000
FFF000
7FF000
0F8000
0F8000
0F8000
1FFF80
1FFFC0
3FFFC0
3FFFC0
1FFFC0
ENDCHAR
STARTCHAR currency
ENCODING 164
SWIDTH 677 0
DWIDTH 19 0
BBX 17 22 1 0
BITMAP
400200
E00380
F00780
FFFF80
7FFF00
3FFE00
7FFF00
7C3F00
780F00
F80F80
F80F80
F00F80
F80F80
F80F00
7C1F00
7FFF00
3FFE00
7FFF00
FFFF80
F80F80
F00780
600300
ENDCHAR
STARTCHAR yen
ENCODING 165
SWIDTH 677 0
DWIDTH 19 0
BBX 19 21 0 0
BITMAP
100100
7803C0
FC07E0
7C07C0
7E0FC0
3F1F80
3F1F00
1FBF00
0FBE00
07FC00
07FC00
1FFF00
1FFF00
1FFF00
01F000
01F000
1FFF00
1FFF00
0FFF00
01F000
00E000
ENDCHAR
STARTCHAR brokenbar
ENCODING 166
SWIDTH 215 0
DWIDTH 6 0
BBX 4 28 1 -6
BITMAP
60
F0
F0
F0
F0
F0
F0
F0
F0
F0
F0
F0
F0
00
00
20
F0
F0
F0
F0
F0
F0
F0
F0
F0
F0
F0
F0
ENDCHAR
STARTCHAR section
ENCODING 167
SWIDTH 560 0
DWIDTH 16 0
BBX 14 28 1 -6
BITMAP
0200
1FE0
3FF0
7FF8
FFF8
F8F0
F800
F800
FF00
7FE0
7FF8
7FF8
FFFC
F87C
F87C
FC7C
7FFC
7FF8
3FF8
0FFC
00FC
607C
F07C
F8FC
FFF8
7FF8
3FF0
1FC0
ENDCHAR
STARTCHAR dieresis
ENCODING 168
SWIDTH 489 0
DWIDTH 14 0
BBX 13 5 1 17
BITMAP
7070
F8F8
F8F8
F8F8
F8F0
ENDCHAR
STARTCHAR copyright
ENCODING 169
SWIDTH 711 0
DWIDTH 20 0
BBX 18 18 1 3
BITMAP
07F800
1FFE00
3FFF00
700380
E3F180
E7F9C0
CFF9C0
CE00C0
CE00C0
CE00C0
CE00C0
CF30C0
E7F9C0
E3F1C0
70E380
7C0F00
3FFE00
0FFC00
ENDCHAR
STARTCHAR ordfeminine
ENCODING 170
SWIDTH 445 0
DWIDTH 12 0
BBX 10 11 1 9
BITMAP
1DC0
7FC0
FFC0
FFC0
E3C0
E1C0
F3C0
FFC0
7FC0
3FC0
0880
ENDCHAR
STARTCHAR guillemotleft
ENCODING 171
SWIDTH 668 0
DWIDTH 19 0
BBX 18 15 0 0
BITMAP
010100
0383C0
07C7C0
0FCFC0
1F9F80
3F3F00
7E7E00
FC7C00
7C7E00
7E3F00
3F1F80
1F8FC0
0FC7C0
07C3C0
038180
ENDCHAR
STARTCHAR logicalnot
ENCODING 172
SWIDTH 526 0
DWIDTH 15 0
BBX 14 9 0 3
BITMAP
7FFC
FFFC
FFFC
7FFC
3FFC
001C
001C
001C
0008
ENDCHAR
STARTCHAR registered
ENCODING 174
SWIDTH 711 0
DWIDTH 20 0
BBX 18 18 1 3
BITMAP
07F800
1FFE00
3FFF00
700380
E7F180
E7F9C0
C7F9C0
C738C0
C738C0
C7F8C0
C7F0C0
C7F8C0
E739C0
E71DC0
700380
7C0F00
3FFE00
0FFC00
ENDCHAR
STARTCHAR degree
ENCODING 176
SWIDTH 407 0
DWIDTH 11 0
BBX 10 11 1 11
BITMAP
0800
3F00
7F80
FF80
E3C0
E3C0
E3C0
FF80
7F80
3F00
0800
ENDCHAR
STARTCHAR plusminus
ENCODING 177
SWIDTH 505 0
DWIDTH 14 0
BBX 12 15 1 0
BITMAP
0F00
0F00
0F00
FFF0
FFF0
FFF0
FFF0
0F00
0F00
0F00
0000
7FF0
FFF0
FFF0
FFF0
ENDCHAR
STARTCHAR twosuperior
ENCODING 178
SWIDTH 455 0
DWIDTH 13 0
BBX 11 15 1 6
BITMAP
1F00
7F80
7FC0
FFC0
F3E0
F1E0
F3E0
47C0
0FC0
3F80
7F00
FFE0
FFE0
FFE0
7FE0
ENDCHAR
STARTCHAR threesuperior
ENCODING 179
SWIDTH 457 0
DWIDTH 13 0
BBX 11 15 1 6
BITMAP
1F00
3F80
7FC0
FFE0
F1E0
31E0
0FC0
0FC0
0FE0
E1E0
F1E0
FFE0
FFC0
7FC0
3F00
ENDCHAR
STARTCHAR acute
ENCODING 180
SWIDTH 605 0
DWIDTH 17 0
BBX 8 6 4 16
BITMAP
02
1F
FF
FF
FE
70
ENDCHAR
STARTCHAR mu
ENCODING 181
SWIDTH 601 0
DWIDTH 17 0
BBX 15 21 1 -6
BITMAP
701C
F83E
F83E
F83E
F83E
F83E
F83E
F83E
F83E
FC7E
FFFE
FFFE
FFFE
FFFE
FB1C
F800
F800
F800
F800
F800
F800
ENDCHAR
STARTCHAR paragraph
ENCODING 182
SWIDTH 614 0
DWIDTH 17 0
BBX 15 24 1 -7
BITMAP
7FFC
FFFE
FFFE
FF9E
FF9E
FF9E
FF9E
FF9E
7F9E
0F9E
079E
079E
079E
079E
079E
079E
079E
079E
079E
079E
079E
079E
071C
0208
ENDCHAR
STARTCHAR periodcentered
ENCODING 183
SWIDTH 237 0
DWIDTH 7 0
BBX 5 5 1 6
BITMAP
F8
F8
F8
F8
F0
ENDCHAR
STARTCHAR cedilla
ENCODING 184
SWIDTH 559 0
DWIDTH 16 0
BBX 5 6 5 -5
BITMAP
70
F8
F8
18
F8
F0
ENDCHAR
STARTCHAR onesuperior
ENCODING 185
SWIDTH 321 0
DWIDTH 9 0
BBX 8 15 0 6
BITMAP
06
0F
3F
7F
FF
FF
7F
0F
0F
0F
0F
0F
0F
0F
0F
ENDCHAR
STARTCHAR ordmasculine
ENCODING 186
SWIDTH 439 0
DWIDTH 12 0
BBX 11 11 1 9
BITMAP
1E00
3F80
7FC0
FFC0
F1C0
E1E0
E1E0
FFC0
7FC0
7F80
1E00
ENDCHAR
STARTCHAR guillemotright
ENCODING 187
SWIDTH 669 0
DWIDTH 19 0
BBX 18 15 0 0
BITMAP
201000
787800
FC7C00
7E7E00
3F3F00
1F9F80
0F8FC0
07C7C0
0FCFC0
1F9F80
3F3F00
7E7E00
FC7C00
787800
303000
ENDCHAR
STARTCHAR onequarter
ENCODING 188
SWIDTH 786 0
DWIDTH 22 0
BBX 19 23 1 -1
BITMAP
080600
1C0700
3C0E00
7C0E00
FC1C00
7C1C00
1C3800
1C3000
1C7000
1C6000
1CEC60
1CCEE0
01CEE0
019EE0
039EE0
071CE0
071FE0
0E1FE0
0E1FE0
1C00E0
1C00E0
3800E0
100000
ENDCHAR
STARTCHAR onehalf
ENCODING 189
SWIDTH 804 0
DWIDTH 23 0
BBX 20 23 1 -1
BITMAP
080600
1C0700
3C0E00
7C0E00
FC1C00
7C1C00
1C3800
1C3000
1C7000
1C6000
1CE780
1CCFC0
01DFE0
019FE0
039CE0
071CE0
0703E0
0E07C0
0E1F80
1C1FF0
1C1FF0
381FF0
100000
ENDCHAR
STARTCHAR threequarters
ENCODING 190
SWIDTH 842 0
DWIDTH 24 0
BBX 21 23 1 -1
BITMAP
080180
3F0380
7F8380
7F8700
738700
0F8E00
0F8E00
0F9C00
F39C00
7FB800
7FB330
3F73B8
0867B8
00E738
00C738
01C738
038FF8
038FF8
0707F8
070038
0E0038
0E0038
040000
ENDCHAR
STARTCHAR questiondown
ENCODING 191
SWIDTH 511 0
DWIDTH 14 0
BBX 13 21 1 -6
BITMAP
0F00
0F80
0F80
0F80
0F80
0000
0000
0000
0F00
0F00
3F00
7F00
FE00
F800
F070
F0F8
F9F8
FFF0
7FF0
3FE0
1F80
ENDCHAR
STARTCHAR Agrave
ENCODING 192
SWIDTH 765 0
DWIDTH 21 0
BBX 21 27 0 0
BITMAP
018000
03F000
03FC00
03FC00
00FC00
001800
002000
007800
00F800
00FC00
01FC00
01FE00
03FE00
03FF00
07FF00
07DF80
0FCF80
0F8FC0
1FFFC0
1FFFE0
3FFFE0
3FFFF0
7FFFF0
7C01F0
FC01F8
7800F8
3800F0
ENDCHAR
STARTCHAR Aacute
ENCODING 193
SWIDTH 765 0
DWIDTH 21 0
BBX 21 27 0 0
BITMAP
001E00
00FE00
01FF00
00FE00
00F000
000000
002000
007800
00F800
00FC00
01FC00
01FE00
03FE00
03FF00
07FF00
07DF80
0FCF80
0F8FC0
1FFFC0
1FFFE0
3FFFE0
3FFFF0
7FFFF0
7C01F0
FC01F8
7800F8
3800F0
ENDCHAR
STARTCHAR Acircumflex
ENCODING 194
SWIDTH 765 0
DWIDTH 21 0
BBX 21 27 0 0
BITMAP
00F800
03FF00
07FF00
07FF00
038600
000000
002000
007800
00F800
00FC00
01FC00
01FE00
03FE00
03FF00
07FF00
07DF80
0FCF80
0F8FC0
1FFFC0
1FFFE0
3FFFE0
3FFFF0
7FFFF0
7C01F0
FC01F8
7800F8
3800F0
ENDCHAR
STARTCHAR Atilde
ENCODING 195
SWIDTH 765 0
DWIDTH 21 0
BBX 21 27 0 0
BITMAP
01E700
03FF00
07FF00
07FE00
031C00
000000
002000
007800
00F800
00FC00
01FC00
01FE00
03FE00
03FF00
07FF00
07DF80
0FCF80
0F8FC0
1FFFC0
1FFFE0
3FFFE0
3FFFF0
7FFFF0
7C01F0
FC01F8
7800F8
3800F0
ENDCHAR
STARTCHAR Adieresis
ENCODING 196
SWIDTH 765 0
DWIDTH 21 0
BBX 21 27 0 0
BITMAP
078F80
078F80
07CF80
078F80
078700
000000
002000
007800
00F800
00FC00
01FC00
01FE00
03FE00
03FF00
07FF00
07DF80
0FCF80
0F8FC0
1FFFC0
1FFFE0
3FFFE0
3FFFF0
7FFFF0
7C01F0
FC01F8
7800F8
3800F0
ENDCHAR
STARTCHAR Aring
ENCODING 197
SWIDTH 765 0
DWIDTH 21 0
BBX 21 26 0 0
BITMAP
003000
00F800
01CC00
018C00
018C00
01DC00
00F800
00F800
00FC00
01FC00
01FE00
03FE00
03FF00
07FF00
07DF80
0FCF80
0F8FC0
1FFFC0
1FFFE0
3FFFE0
3FFFF0
7FFFF0
7C01F8
FC01F8
7800F8
3800F0
ENDCHAR
STARTCHAR AE
ENCODING 198
SWIDTH 1148 0
DWIDTH 32 0
BBX 31 21 0 0
BITMAP
00007FFC
0001FFFE
0003FFFE
0007FFFE
000FFFFE
001FF000
003FF000
007FF000
00FFFFF0
01FDFFF0
01F9FFF0
03F1FFF0
07E1FFF0
0FFFF000
1FFFF000
3FFFF000
7FFFFFFE
FE01FFFE
FC01FFFE
F800FFFE
7000FFFE
ENDCHAR
STARTCHAR Ccedilla
ENCODING 199
SWIDTH 679 0
DWIDTH 19 0
BBX 17 26 1 -5
BITMAP
00F000
07FE00
0FFF80
3FFF80
3FFF80
7F8F80
FE0200
FC0000
F80000
F80000
F80000
F80000
F80000
F80000
FC0000
7E0700
7FFF80
3FFF80
1FFF80
0FFF00
03FC00
00F000
00F800
001800
00F800
00F000
ENDCHAR
STARTCHAR Egrave
ENCODING 200
SWIDTH 638 0
DWIDTH 18 0
BBX 16 27 1 0
BITMAP
0600
07E0
0FF8
0FF0
03F0
0030
3FFE
FFFF
FFFF
FFFF
FFFF
F800
F800
F800
FFF0
FFF8
FFF8
FFF8
FFF8
F800
F800
F800
FFFF
FFFF
FFFF
FFFF
7FFF
ENDCHAR
STARTCHAR Eacute
ENCODING 201
SWIDTH 638 0
DWIDTH 18 0
BBX 16 27 1 0
BITMAP
0070
07F8
07F8
07F0
0780
0000
3FFE
FFFF
FFFF
FFFF
FFFF
F800
F800
F800
FFF0
FFF8
FFF8
FFF8
FFF8
F800
F800
F800
FFFF
FFFF
FFFF
FFFF
7FFF
ENDCHAR
STARTCHAR Ecircumflex
ENCODING 202
SWIDTH 638 0
DWIDTH 18 0
BBX 16 27 1 0
BITMAP
07E0
1FF8
3FFC
1FF8
1C38
0000
3FFE
FFFF
FFFF
FFFF
FFFF
F800
F800
F800
FFF0
FFF8
FFF8
FFF8
FFF8
F800
F800
F800
FFFF
FFFF
FFFF
FFFF
7FFF
ENDCHAR
STARTCHAR Edieresis
ENCODING 203
SWIDTH 638 0
DWIDTH 18 0
BBX 16 27 1 0
BITMAP
3E3C
3E7C
3E7E
3E3C
1C3C
0000
3FFE
FFFF
FFFF
FFFF
FFFF
F800
F800
F800
FFF0
FFF8
FFF8
FFF8
FFF8
F800
F800
F800
FFFF
FFFF
FFFF
FFFF
7FFF
ENDCHAR
STARTCHAR Igrave
ENCODING 204
SWIDTH 267 0
DWIDTH 7 0
BBX 8 27 -1 0
BITMAP
E0
FC
FF
FF
3F
06
08
3E
3E
3E
3E
3E
3E
3E
3E
3E
3E
3E
3E
3E
3E
3E
3E
3E
3E
3E
1E
ENDCHAR
STARTCHAR Iacute
ENCODING 205
SWIDTH 269 0
DWIDTH 8 0
BBX 8 27 1 0
BITMAP
0E
FF
FF
FE
F8
00
20
F8
F8
F8
F8
F8
F8
F8
F8
F8
F8
F8
F8
F8
F8
F8
F8
F8
F8
F8
78
ENDCHAR
STARTCHAR Icircumflex
ENCODING 206
SWIDTH 270 0
DWIDTH 8 0
BBX 11 27 -2 0
BITMAP
1F00
7FE0
FFE0
FFE0
70C0
0000
0400
1F00
1F00
1F00
1F00
1F00
1F00
1F00
1F00
1F00
1F00
1F00
1F00
1F00
1F00
1F00
1F00
1F00
1F00
1F00
0F00
ENDCHAR
STARTCHAR Idieresis
ENCODING 207
SWIDTH 268 0
DWIDTH 8 0
BBX 12 27 -2 0
BITMAP
F1F0
F9F0
F9F0
F1F0
F0E0
0000
0400
0F00
1F00
1F00
1F00
1F00
1F00
1F00
1F00
1F00
1F00
1F00
1F00
1F00
1F00
1F00
1F00
1F00
1F00
1F00
0F00
ENDCHAR
STARTCHAR Eth
ENCODING 208
SWIDTH 775 0
DWIDTH 22 0
BBX 20 21 1 0
BITMAP
0FC000
3FFC00
3FFF00
3FFF80
3FFFC0
3E3FE0
3E07E0
3E03F0
3E01F0
FF81F0
FF81F0
FF81F0
7F81F0
3E03F0
3E07E0
3E0FE0
3FFFC0
3FFF80
3FFF00
3FFE00
1FF800
ENDCHAR
STARTCHAR Ntilde
ENCODING 209
SWIDTH 720 0
DWIDTH 20 0
BBX 18 27 1 0
BITMAP
07CC00
0FFE00
0FFC00
1EFC00
047000
000000
200100
F807C0
FC07C0
FE07C0
FE07C0
FF07C0
FF87C0
FF87C0
FFC7C0
FFE7C0
FBF7C0
F9F7C0
F9FFC0
F8FFC0
F87FC0
F83FC0
F83FC0
F81FC0
F80FC0
F807C0
7803C0
ENDCHAR
STARTCHAR Ograve
ENCODING 210
SWIDTH 775 0
DWIDTH 22 0
BBX 20 27 1 0
BITMAP
030000
07F000
07F800
07F800
01F800
003000
00F000
07FE00
0FFF00
3FFF80
3FFFC0
7F1FE0
7E07E0
FC03F0
F801F0
F801F0
F801F0
F801F0
F801F0
F803F0
FC03E0
7E07E0
7FFFC0
3FFFC0
1FFF80
0FFF00
03FC00
ENDCHAR
STARTCHAR Oacute
ENCODING 211
SWIDTH 775 0
DWIDTH 22 0
BBX 20 27 1 0
BITMAP
003C00
01FC00
03FE00
03FC00
01E000
000000
00F000
07FE00
0FFF00
3FFF80
3FFFC0
7F1FE0
7E07E0
FC03F0
F801F0
F801F0
F801F0
F801F0
F801F0
F803F0
FC03E0
7E07E0
7FFFC0
3FFFC0
1FFF80
0FFF00
03FC00
ENDCHAR
STARTCHAR Ocircumflex
ENCODING 212
SWIDTH 775 0
DWIDTH 22 0
BBX 20 27 1 0
BITMAP
01F800
07FE00
0FFE00
07FE00
070E00
000000
00F000
07FE00
0FFF00
3FFF80
3FFFC0
7F1FE0
7E07E0
FC03F0
F801F0
F801F0
F801F0
F801F0
F801F0
F803F0
FC03E0
7E07E0
7FFFC0
3FFFC0
1FFF80
0FFF00
03FC00
ENDCHAR
STARTCHAR Otilde
ENCODING 213
SWIDTH 775 0
DWIDTH 22 0
BBX 20 27 1 0
BITMAP
01E600
03FF00
07FF00
07FE00
031C00
000000
00F000
07FE00
0FFF00
3FFF80
3FFFC0
7F1FE0
7E07E0
FC03F0
F801F0
F801F0
F801F0
F801F0
F801F0
F803F0
FC03E0
7E07E0
7FFFC0
3FFFC0
1FFF80
0FFF00
03FC00
ENDCHAR
STARTCHAR Odieresis
ENCODING 214
SWIDTH 775 0
DWIDTH 22 0
BBX 20 27 1 0
BITMAP
0F1F00
1F1F00
1F1F00
0F1F00
0F0E00
000000
00F000
07FE00
0FFF00
3FFF80
3FFFC0
7F1FE0
7E07E0
FC03F0
F801F0
F801F0
F801F0
F801F0
F801F0
F803F0
FC03E0
7E07E0
7FFFC0
3FFFC0
1FFF80
0FFF00
03FC00
ENDCHAR
STARTCHAR multiply
ENCODING 215
SWIDTH 521 0
DWIDTH 15 0
BBX 13 13 1 1
BITMAP
6060
F0F0
F9F8
FFF0
7FF0
3FE0
1FC0
3FC0
7FE0
FFF0
F9F8
F8F8
6070
ENDCHAR
STARTCHAR Oslash
ENCODING 216
SWIDTH 775 0
DWIDTH 22 0
BBX 20 24 1 -2
BITMAP
000600
01FF80
07FF80
0FFF80
3FFF80
3FFFC0
7F3FE0
7E3FE0
FC7FF0
F87DF0
F8F9F0
F8F9F0
F9F1F0
F9F1F0
FBE3F0
FFE3E0
7FC7E0
7FFFC0
3FFFC0
1FFF80
1FFF00
1FFC00
0F0000
020000
ENDCHAR
STARTCHAR Ugrave
ENCODING 217
SWIDTH 726 0
DWIDTH 20 0
BBX 18 27 1 0
BITMAP
0E0000
0FC000
1FF000
0FF000
03E000
006000
300100
F807C0
F807C0
F807C0
F807C0
F807C0
F807C0
F807C0
F807C0
F807C0
F807C0
F807C0
F807C0
F807C0
7C0FC0
7E0F80
7FFF80
3FFF00
1FFF00
0FFE00
07F800
ENDCHAR
STARTCHAR Uacute
ENCODING 218
SWIDTH 726 0
DWIDTH 20 0
BBX 18 27 1 0
BITMAP
003C00
01FC00
03FE00
03FC00
01E000
000000
300100
F807C0
F807C0
F807C0
F807C0
F807C0
F807C0
F807C0
F807C0
F807C0
F807C0
F807C0
F807C0
F807C0
7C0FC0
7E0F80
7FFF80
3FFF00
1FFF00
0FFE00
07F800
ENDCHAR
STARTCHAR Ucircumflex
ENCODING 219
SWIDTH 726 0
DWIDTH 20 0
BBX 18 27 1 0
BITMAP
01F000
0FFE00
0FFE00
0FFE00
071C00
000000
300100
F807C0
F807C0
F807C0
F807C0
F807C0
F807C0
F807C0
F807C0
F807C0
F807C0
F807C0
F807C0
F807C0
7C0FC0
7E0F80
7FFF80
3FFF00
1FFF00
0FFE00
07F800
ENDCHAR
STARTCHAR Udieresis
ENCODING 220
SWIDTH 726 0
DWIDTH 20 0
BBX 18 27 1 0
BITMAP
1F1E00
1F3E00
1F3E00
1F1E00
0E1E00
000000
300100
F807C0
F807C0
F807C0
F807C0
F807C0
F807C0
F807C0
F807C0
F807C0
F807C0
F807C0
F807C0
F807C0
7C0FC0
7E0F80
7FFF80
3FFF00
1FFF00
0FFE00
07F800
ENDCHAR
STARTCHAR Yacute
ENCODING 221
SWIDTH 686 0
DWIDTH 19 0
BBX 19 27 0 0
BITMAP
003C00
01FC00
03FC00
03FC00
01E000
000000
300180
7803C0
FC07E0
7C07E0
7E0FC0
3F1F80
1F1F80
1FBF00
0FFE00
07FE00
07FC00
03F800
01F800
01F000
01F000
01F000
01F000
01F000
01F000
01F000
00F000
ENDCHAR
STARTCHAR Thorn
ENCODING 222
SWIDTH 634 0
DWIDTH 18 0
BBX 16 21 1 0
BITMAP
2000
F800
F800
FFC0
FFF8
FFFC
FFFE
FFFE
F83F
F81F
F81F
F81F
F83F
FFFF
FFFE
FFFC
FFF8
FFF0
F800
F800
7800
ENDCHAR
STARTCHAR germandbls
ENCODING 223
SWIDTH 633 0
DWIDTH 18 0
BBX 16 22 1 -1
BITMAP
0FE0
3FF8
7FF8
FFFC
FC7C
F878
F8F8
F9F0
F9E0
F9E0
F9F0
F9FC
F8FE
F87E
F81F
F81F
F99F
F9FF
FBFF
FBFE
F9FC
7000
ENDCHAR
STARTCHAR agrave
ENCODING 224
SWIDTH 596 0
DWIDTH 17 0
BBX 15 22 1 0
BITMAP
0400
0F80
0FF0
0FF0
07F0
00E0
0000
071C
1FBC
3FFE
7FFE
FFFE
FCFE
F87E
F87E
F87E
FC7E
FFFE
7FFE
3FFE
1FFE
0FBC
ENDCHAR
STARTCHAR aacute
ENCODING 225
SWIDTH 596 0
DWIDTH 17 0
BBX 15 22 1 0
BITMAP
0020
01F0
0FF0
0FF0
0FE0
0700
0000
071C
1FBC
3FFE
7FFE
FFFE
FCFE
F87E
F87E
F87E
FC7E
FFFE
7FFE
3FFE
1FFE
0FBC
ENDCHAR
STARTCHAR acircumflex
ENCODING 226
SWIDTH 596 0
DWIDTH 17 0
BBX 15 22 1 0
BITMAP
0180
0FF0
1FFC
1FFC
1F78
0810
0000
071C
1FBC
3FFE
7FFE
FFFE
FCFE
F87E
F87E
F87E
FC7E
FFFE
7FFE
3FFE
1FFE
0FBC
ENDCHAR
STARTCHAR atilde
ENCODING 227
SWIDTH 596 0
DWIDTH 17 0
BBX 15 22 1 0
BITMAP
0710
0FB8
1FFC
3FF8
1DF0
0000
0000
071C
1FBC
3FFE
7FFE
FFFE
FCFE
F87E
F87E
F87E
FC7E
FFFE
7FFE
3FFE
1FFE
0FBC
ENDCHAR
STARTCHAR adieresis
ENCODING 228
SWIDTH 596 0
DWIDTH 17 0
BBX 15 22 1 0
BITMAP
1C18
3E7C
3E7C
3E7C
3E3C
0000
0000
071C
1FBC
3FFE
7FFE
FFFE
FCFE
F87E
F87E
F87E
FC7E
FFFE
7FFE
3FFE
1FFE
0FBC
ENDCHAR
STARTCHAR aring
ENCODING 229
SWIDTH 596 0
DWIDTH 17 0
BBX 15 21 1 0
BITMAP
01C0
03E0
0660
0660
03E0
0180
071C
1FBC
3FFE
7FFE
FFFE
FCFE
F87E
F87E
F87E
FC7E
FFFE
7FFE
3FFE
1FFE
0FBC
ENDCHAR
STARTCHAR ae
ENCODING 230
SWIDTH 910 0
DWIDTH 25 0
BBX 24 15 1 0
BITMAP
0F83F0
3FEFFC
FFFFFE
FFFFFE
FFFF3F
78FE1F
207E1F
1F7FFE
7FFFFE
FFFE00
F07F0C
F0FFFE
FFFFFE
FFEFFE
7F83F8
ENDCHAR
STARTCHAR ccedilla
ENCODING 231
SWIDTH 524 0
DWIDTH 15 0
BBX 13 20 1 -5
BITMAP
07C0
1FF0
3FF8
7FF8
FFF0
FC70
F800
F800
F800
FC60
FFF0
7FF8
7FF8
1FF0
0FE0
07C0
07C0
00C0
07C0
0780
ENDCHAR
STARTCHAR egrave
ENCODING 232
SWIDTH 573 0
DWIDTH 16 0
BBX 14 22 1 0
BITMAP
0800
1F80
1FE0
1FE0
0FE0
00C0
0000
0FE0
1FF0
3FF8
7FFC
FEFC
F87C
F87C
FFFC
FFF8
F800
FC10
7FF8
7FFC
3FFC
0FF8
ENDCHAR
STARTCHAR eacute
ENCODING 233
SWIDTH 573 0
DWIDTH 16 0
BBX 14 22 1 0
BITMAP
0020
03F0
0FF0
0FF0
0FE0
0E00
0000
0FE0
1FF0
3FF8
7FFC
FEFC
F87C
F87C
FFFC
FFF8
F800
FC10
7FF8
7FFC
3FFC
0FF8
ENDCHAR
STARTCHAR ecircumflex
ENCODING 234
SWIDTH 573 0
DWIDTH 16 0
BBX 14 22 1 0
BITMAP
0100
1FE0
3FF8
3FF8
3EF0
1830
0000
0FE0
1FF0
3FF8
7FFC
FEFC
F87C
F87C
FFFC
FFF8
F800
FC10
7FF8
7FFC
3FFC
0FF8
ENDCHAR
STARTCHAR edieresis
ENCODING 235
SWIDTH 573 0
DWIDTH 16 0
BBX 14 22 1 0
BITMAP
3030
7CF8
7CF8
7CF8
7C78
0000
0000
0FE0
1FF0
3FF8
7FFC
FEFC
F87C
F87C
FFFC
FFF8
F800
FC10
7FF8
7FFC
3FFC
0FF8
ENDCHAR
STARTCHAR igrave
ENCODING 236
SWIDTH 255 0
DWIDTH 7 0
BBX 8 22 -1 0
BITMAP
40
F8
FF
FF
7F
0E
00
1C
3E
3E
3E
3E
3E
3E
3E
3E
3E
3E
3E
3E
3E
1E
ENDCHAR
STARTCHAR iacute
ENCODING 237
SWIDTH 255 0
DWIDTH 7 0
BBX 9 22 0 0
BITMAP
0200
1F00
7F80
FF80
7E00
7000
0000
3800
7C00
7C00
7C00
7C00
7C00
7C00
7C00
7C00
7C00
7C00
7C00
7C00
7C00
3C00
ENDCHAR
STARTCHAR icircumflex
ENCODING 238
SWIDTH 255 0
DWIDTH 7 0
BBX 11 22 -2 0
BITMAP
0400
3F80
FFE0
FFE0
FBE0
20C0
0000
0E00
1F00
1F00
1F00
1F00
1F00
1F00
1F00
1F00
1F00
1F00
1F00
1F00
1F00
0F00
ENDCHAR
STARTCHAR idieresis
ENCODING 239
SWIDTH 255 0
DWIDTH 7 0
BBX 13 22 -3 0
BITMAP
3070
F8F8
F8F8
F8F8
78F8
0000
0000
0700
0F80
0F80
0F80
0F80
0F80
0F80
0F80
0F80
0F80
0F80
0F80
0F80
0F80
0780
ENDCHAR
STARTCHAR eth
ENCODING 240
SWIDTH 585 0
DWIDTH 16 0
BBX 15 23 1 0
BITMAP
0080
05C0
0FC0
1F80
0FE0
0FF0
0FF0
0C78
0038
0FFC
3FFC
7FFC
7FFE
FCFE
F83E
F83E
F83E
F87C
FFFC
7FFC
7FF8
3FF0
0FE0
ENDCHAR
STARTCHAR ntilde
ENCODING 241
SWIDTH 606 0
DWIDTH 17 0
BBX 15 22 1 0
BITMAP
0410
1FB8
3FF8
3FF8
39F0
0000
0000
71C0
FFF0
FFF8
FFFC
FFFC
FC7E
F83E
F83E
F83E
F83E
F83E
F83E
F83E
F83E
703C
ENDCHAR
STARTCHAR ograve
ENCODING 242
SWIDTH 600 0
DWIDTH 17 0
BBX 15 22 1 0
BITMAP
0400
0F80
1FE0
1FE0
07E0
00E0
0000
0FC0
1FF0
3FF8
7FFC
FFFC
FC7E
F83E
F83E
F83E
F87E
FFFE
7FFC
3FF8
1FF0
0FE0
ENDCHAR
STARTCHAR oacute
ENCODING 243
SWIDTH 600 0
DWIDTH 17 0
BBX 15 22 1 0
BITMAP
0020
01F0
0FF0
0FF0
0FE0
0700
0000
0FC0
1FF0
3FF8
7FFC
FFFC
FC7E
F83E
F83E
F83E
F87E
FFFE
7FFC
3FF8
1FF0
0FE0
ENDCHAR
STARTCHAR ocircumflex
ENCODING 244
SWIDTH 600 0
DWIDTH 17 0
BBX 15 22 1 0
BITMAP
0100
0FE0
3FF8
3FF8
3EF8
0830
0000
0FC0
1FF0
3FF8
7FFC
FFFC
FC7E
F83E
F83E
F83E
F87E
FFFE
7FFC
3FF8
1FF0
0FE0
ENDCHAR
STARTCHAR otilde
ENCODING 245
SWIDTH 600 0
DWIDTH 17 0
BBX 15 22 1 0
BITMAP
0410
1FB8
3FF8
3FF0
39F0
0000
0000
0FC0
1FF0
3FF8
7FFC
FFFC
FC7E
F83E
F83E
F83E
F87E
FFFE
7FFC
3FF8
1FF0
0FE0
ENDCHAR
STARTCHAR odieresis
ENCODING 246
SWIDTH 600 0
DWIDTH 17 0
BBX 15 22 1 0
BITMAP
3830
7C78
7C7C
7C7C
7C78
0000
0000
0FC0
1FF0
3FF8
7FFC
FFFC
FC7E
F83E
F83E
F83E
F87E
FFFE
7FFC
3FF8
1FF0
0FE0
ENDCHAR
STARTCHAR divide
ENCODING 247
SWIDTH 503 0
DWIDTH 14 0
BBX 12 15 1 0
BITMAP
0F00
0F00
0F00
0F00
0000
7FF0
FFF0
FFF0
FFF0
0000
0600
0F00
0F00
0F00
0F00
ENDCHAR
STARTCHAR oslash
ENCODING 248
SWIDTH 600 0
DWIDTH 17 0
BBX 15 23 1 -4
BITMAP
0038
003C
007C
007C
0FF8
1FF8
3FF8
7FFC
FFFC
FC7E
F83E
F83E
F83E
F87E
FFFE
7FFC
7FF8
3FF0
3FE0
7C00
7C00
F800
7800
ENDCHAR
STARTCHAR ugrave
ENCODING 249
SWIDTH 606 0
DWIDTH 17 0
BBX 15 22 1 0
BITMAP
0C00
0F80
1FE0
1FE0
07E0
00E0
0000
701C
F83E
F83E
F83E
F83E
F83E
F83E
F83E
F83E
FC7E
7FFE
7FFE
3FFE
1FFE
0F3C
ENDCHAR
STARTCHAR uacute
ENCODING 250
SWIDTH 606 0
DWIDTH 17 0
BBX 15 22 1 0
BITMAP
0020
01F0
07F8
0FF8
07E0
0700
0000
701C
F83E
F83E
F83E
F83E
F83E
F83E
F83E
F83E
FC7E
7FFE
7FFE
3FFE
1FFE
0F3C
ENDCHAR
STARTCHAR ucircumflex
ENCODING 251
SWIDTH 606 0
DWIDTH 17 0
BBX 15 22 1 0
BITMAP
0100
0FE0
3FF8
3FF8
3EF8
0830
0000
701C
F83E
F83E
F83E
F83E
F83E
F83E
F83E
F83E
FC7E
7FFE
7FFE
3FFE
1FFE
0F3C
ENDCHAR
STARTCHAR udieresis
ENCODING 252
SWIDTH 606 0
DWIDTH 17 0
BBX 15 22 1 0
BITMAP
3838
7C7C
7C7C
7C7C
7C78
0000
0000
701C
F83E
F83E
F83E
F83E
F83E
F83E
F83E
F83E
FC7E
7FFE
7FFE
3FFE
1FFE
0F3C
ENDCHAR
STARTCHAR yacute
ENCODING 253
SWIDTH 604 0
DWIDTH 17 0
BBX 16 29 0 -7
BITMAP
0010
00F8
07F8
07FC
03F0
0380
0000
380E
780F
FC1F
7C1F
7E3F
3F3E
1F7E
1FFC
0FFC
0FF8
07F8
03F8
03F0
03F0
03E0
07E0
07C0
07C0
0F80
0F80
0F80
0200
ENDCHAR
STARTCHAR thorn
ENCODING 254
SWIDTH 580 0
DWIDTH 16 0
BBX 15 28 1 -6
BITMAP
7000
F800
F800
F800
F800
F800
F800
F980
FFE0
FFF0
FFF8
FFFC
FCFC
F87C
F83E
F87C
FC7C
FFFC
FFF8
FFF8
FFF0
FBC0
F800
F800
F800
F800
F800
F000
ENDCHAR
STARTCHAR ydieresis
ENCODING 255
SWIDTH 604 0
DWIDTH 17 0
BBX 16 29 0 -7
BITMAP
0C1C
1E3E
3E3E
3E3E
1E3E
0000
0000
380E
780F
FC1F
7C1F
7E3F
3F3E
1F7E
1FFC
0FFC
0FF8
07F8
03F8
03F0
03F0
03E0
07E0
07C0
07C0
0F80
0F80
0F80
0200
ENDCHAR
STARTCHAR dotlessi
ENCODING 305
SWIDTH 255 0
DWIDTH 7 0
BBX 5 15 1 0
BITMAP
70
F8
F8
F8
F8
F8
F8
F8
F8
F8
F8
F8
F8
F8
78
ENDCHAR
STARTCHAR Lslash
ENCODING 321
SWIDTH 687 0
DWIDTH 19 0
BBX 18 21 1 0
BITMAP
040000
1F0000
1F0000
1F0000
1F0000
1F0000
1F0000
1F6000
1FF000
3FF000
FFE000
FF0000
FF0000
1F0000
1F0000
1F0000
1F0000
1FFF80
1FFFC0
1FFFC0
1FFF80
ENDCHAR
STARTCHAR lslash
ENCODING 322
SWIDTH 468 0
DWIDTH 13 0
BBX 13 22 0 0
BITMAP
0700
0F00
0F80
0F80
0F80
0F80
0F80
0F80
0FF0
0FF8
3FF8
7FF0
FF80
7F80
0F80
0F80
0F80
0FE0
0FE0
0FE0
07E0
03E0
ENDCHAR
STARTCHAR OE
ENCODING 338
SWIDTH 1092 0
DWIDTH 31 0
BBX 29 21 1 0
BITMAP
007FFFE0
07FFFFF8
0FFFFFF8
1FFFFFF8
3FFFFFF8
7F07C000
7E07C000
FC07C000
F807FF80
F807FFC0
F807FFC0
F807FFC0
F807FF80
F807C000
FC07C000
7E07C000
7FFFFFF0
3FFFFFF8
1FFFFFF8
0FFFFFF8
01FFFFF0
ENDCHAR
STARTCHAR oe
ENCODING 339
SWIDTH 944 0
DWIDTH 26 0
BBX 25 15 1 0
BITMAP
07C0F800
1FF7FE00
3FFFFF00
7FFFFF00
FFFF9F80
FC7F0F80
F83E1F80
F83FFF00
F83FFF00
F87F0000
FFFF0600
7FFFFF00
7FFFFF00
3FF7FF00
0FE3FC00
ENDCHAR
STARTCHAR Scaron
ENCODING 352
SWIDTH 583 0
DWIDTH 16 0
BBX 15 27 1 0
BITMAP
3CF0
3FF8
3FF8
3FF0
0780
0000
0780
3FF0
7FF8
7FF8
FFF8
F870
F800
FC00
FF80
7FF0
3FF8
1FFC
03FC
007E
703E
F87E
FCFC
FFFC
7FF8
3FF0
1FE0
ENDCHAR
STARTCHAR scaron
ENCODING 353
SWIDTH 489 0
DWIDTH 14 0
BBX 12 22 1 0
BITMAP
6040
FBE0
FFE0
FFE0
3F80
0400
0000
1F80
7FE0
7FE0
FFE0
F840
FC00
7FC0
7FE0
3FF0
0FF0
61F0
FFF0
FFF0
FFE0
3FC0
ENDCHAR
STARTCHAR Ydieresis
ENCODING 376
SWIDTH 686 0
DWIDTH 19 0
BBX 19 27 0 0
BITMAP
0F1F00
1F1F00
1F1F00
1F1F00
0E0E00
000000
300180
7803C0
FC07E0
7C07E0
7E0FC0
3F1F80
1F1F80
1FBF00
0FFE00
07FE00
07FC00
03F800
01F800
01F000
01F000
01F000
01F000
01F000
01F000
01F000
00F000
ENDCHAR
STARTCHAR Zcaron
ENCODING 381
SWIDTH 643 0
DWIDTH 18 0
BBX 16 27 1 0
BITMAP
1E78
1FF8
3FFC
1FF8
03C0
0000
7FFC
FFFE
FFFF
FFFF
FFFE
007E
00FC
01F8
03F0
03F0
07E0
0FC0
0FC0
1F80
3F00
7E00
7FFE
FFFF
FFFF
FFFF
7FFF
ENDCHAR
STARTCHAR zcaron
ENCODING 382
SWIDTH 586 0
DWIDTH 16 0
BBX 15 22 1 0
BITMAP
1830
3EF8
3FF8
3FF8
0FE0
0100
0000
7FF8
FFFC
FFFC
FFFC
7FFC
03F0
07E0
0FC0
1F80
3F00
7FFC
FFFE
FFFE
FFFE
7FFC
ENDCHAR
STARTCHAR florin
ENCODING 402
SWIDTH 529 0
DWIDTH 15 0
BBX 14 27 0 -6
BITMAP
001C
00FC
01FC
03FC
03FC
03E0
03C0
1FFC
3FFC
3FFC
3FFC
1FFC
07C0
07C0
07C0
07C0
0780
0F80
0F80
0F80
0F80
0F80
1F80
7F00
FF00
FE00
FC00
ENDCHAR
STARTCHAR circumflex
ENCODING 710
SWIDTH 603 0
DWIDTH 17 0
BBX 11 6 3 16
BITMAP
0400
3F80
FFE0
FFE0
FBE0
2080
ENDCHAR
STARTCHAR caron
ENCODING 711
SWIDTH 600 0
DWIDTH 17 0
BBX 11 6 3 16
BITMAP
60C0
FBE0
FFE0
FFE0
3F80
0400
ENDCHAR
STARTCHAR dotaccent
ENCODING 729
SWIDTH 285 0
DWIDTH 8 0
BBX 5 5 2 20
BITMAP
20
F0
F8
F8
F0
ENDCHAR
STARTCHAR ring
ENCODING 730
SWIDTH 378 0
DWIDTH 11 0
BBX 7 7 2 19
BITMAP
38
7C
CE
C6
C6
EE
7C
ENDCHAR
STARTCHAR ogonek
ENCODING 731
SWIDTH 570 0
DWIDTH 16 0
BBX 5 6 5 -5
BITMAP
30
F8
F8
C0
F8
78
ENDCHAR
STARTCHAR tilde
ENCODING 732
SWIDTH 584 0
DWIDTH 16 0
BBX 11 5 2 17
BITMAP
1840
7EE0
7FE0
FFE0
67C0
ENDCHAR
STARTCHAR endash
ENCODING 8211
SWIDTH 561 0
DWIDTH 16 0
BBX 15 5 0 5
BITMAP
7FFE
FFFE
FFFE
7FFE
3FFC
ENDCHAR
STARTCHAR emdash
ENCODING 8212
SWIDTH 693 0
DWIDTH 19 0
BBX 19 5 0 5
BITMAP
7FFFC0
FFFFE0
FFFFE0
7FFFE0
3FFF80
ENDCHAR
STARTCHAR quoteleft
ENCODING 8216
SWIDTH 237 0
DWIDTH 7 0
BBX 5 10 1 11
BITMAP
08
38
78
E0
E0
F0
F8
F8
F8
F8
ENDCHAR
STARTCHAR quoteright
ENCODING 8217
SWIDTH 237 0
DWIDTH 7 0
BBX 5 10 1 11
BITMAP
20
F8
F8
F8
F8
78
70
70
E0
C0
ENDCHAR
STARTCHAR quotesinglbase
ENCODING 8218
SWIDTH 237 0
DWIDTH 7 0
BBX 5 9 1 -4
BITMAP
F8
F8
F8
F8
F8
30
70
F0
E0
ENDCHAR
STARTCHAR quotedblleft
ENCODING 8220
SWIDTH 482 0
DWIDTH 14 0
BBX 12 10 1 11
BITMAP
0810
3870
78E0
E1C0
E1C0
F1E0
F9F0
F9F0
F9F0
F9E0
ENDCHAR
STARTCHAR quotedblright
ENCODING 8221
SWIDTH 482 0
DWIDTH 14 0
BBX 12 10 1 11
BITMAP
2040
F9F0
F9F0
F9F0
F9F0
78F0
70E0
70E0
E1C0
C180
ENDCHAR
STARTCHAR quotedblbase
ENCODING 8222
SWIDTH 482 0
DWIDTH 14 0
BBX 12 9 1 -4
BITMAP
F9E0
F9F0
F9F0
F9F0
F9F0
30E0
70E0
F1C0
E1C0
ENDCHAR
STARTCHAR dagger
ENCODING 8224
SWIDTH 527 0
DWIDTH 15 0
BBX 14 26 0 -5
BITMAP
0780
07C0
07C0
07C0
07C0
07C0
07C0
7FFC
FFFC
FFFC
7FFC
07C0
07C0
07C0
07C0
07C0
07C0
07C0
07C0
07C0
07C0
07C0
07C0
07C0
07C0
07C0
ENDCHAR
STARTCHAR daggerdbl
ENCODING 8225
SWIDTH 527 0
DWIDTH 15 0
BBX 14 26 0 -5
BITMAP
0780
07C0
07C0
07C0
07C0
07C0
07C0
7FFC
FFFC
FFFC
7FFC
07C0
07C0
07C0
07C0
7FF8
FFFC
FFFC
FFFC
7FFC
07C0
07C0
07C0
07C0
07C0
07C0
ENDCHAR
STARTCHAR bullet
ENCODING 8226
SWIDTH 342 0
DWIDTH 10 0
BBX 8 8 1 5
BITMAP
3C
FE
FF
FF
FF
FF
FE
7C
ENDCHAR
STARTCHAR ellipsis
ENCODING 8230
SWIDTH 911 0
DWIDTH 26 0
BBX 24 5 1 0
BITMAP
F83C1E
F87C1F
F87C1F
F87C1F
F03C1E
ENDCHAR
STARTCHAR perthousand
ENCODING 8240
SWIDTH 1223 0
DWIDTH 34 0
BBX 32 23 1 -1
BITMAP
00018000
0C018000
3F038000
7F830000
FF870000
E38E0000
E3CE0000
E3DC0000
FF9C0000
7FB80000
7F380000
1E700000
0073F0FC
00E7F8FE
00EFF9FF
01CE39C7
018E39C7
038E39C7
030F79EF
070FF9FF
0607F0FE
0E03E07C
04000000
ENDCHAR
STARTCHAR guilsinglleft
ENCODING 8249
SWIDTH 383 0
DWIDTH 11 0
BBX 10 15 0 0
BITMAP
0100
03C0
07C0
0FC0
1F80
3F00
7E00
FC00
7E00
7F00
3F80
0FC0
07C0
03C0
0180
ENDCHAR
STARTCHAR guilsinglright
ENCODING 8250
SWIDTH 383 0
DWIDTH 11 0
BBX 10 15 0 0
BITMAP
3000
7800
FC00
7E00
7F00
3F80
1FC0
0FC0
0FC0
1F80
3F00
7E00
FC00
7800
3000
ENDCHAR
STARTCHAR fraction
ENCODING 8260
SWIDTH 433 0
DWIDTH 12 0
BBX 14 23 1 -1
BITMAP
0018
001C
0038
0030
0070
0060
00E0
01C0
01C0
0380
0380
0700
0700
0E00
0E00
1C00
1C00
3800
3000
7000
6000
E000
4000
ENDCHAR
STARTCHAR Euro
ENCODING 8364
SWIDTH 612 0
DWIDTH 17 0
BBX 16 22 0 0
BITMAP
003E
01FF
07FF
07FF
0FFF
0FC0
1F00
7FFC
FFFE
FFFE
1F00
1F00
7FFE
FFFE
7FFE
1F00
1F80
0FFF
0FFF
07FF
03FF
00FF
ENDCHAR
STARTCHAR trademark
ENCODING 8482
SWIDTH 840 0
DWIDTH 24 0
BBX 22 11 0 7
BITMAP
7FCC0C
FFDE1C
FFFF3C
7F9FFC
0E1FFC
0E1FFC
0E1FFC
0E1FFC
0E1EDC
0E1E1C
0E1E1C
ENDCHAR
STARTCHAR minus
ENCODING 8722
SWIDTH 581 0
DWIDTH 16 0
BBX 15 5 1 5
BITMAP
FFFC
FFFE
FFFE
FFFC
7FF8
ENDCHAR
STARTCHAR f_f
ENCODING 64256
SWIDTH 803 0
DWIDTH 22 0
BBX 22 22 0 0
BITMAP
00E070
07E1F8
0FE3F8
0FE7F8
1FE7F8
1F07C0
1F07C0
7FFFF8
7FFFFC
FFFFFC
FFFFFC
7FFFFC
1F07C0
1F07C0
1F07C0
1F07C0
1F07C0
1F07C0
1F07C0
1F07C0
1F07C0
0E0780
ENDCHAR
STARTCHAR fi
ENCODING 64257
SWIDTH 709 0
DWIDTH 20 0
BBX 19 22 0 0
BITMAP
00C180
07E3E0
0FE3E0
0FE3E0
1FE3C0
1F0000
1F0000
3FE180
7FF3E0
FFF3E0
FFF3E0
7FF3E0
1F03E0
1F03E0
1F03E0
1F03E0
1F03E0
1F03E0
1F03E0
1F03E0
1F03E0
1E03C0
ENDCHAR
STARTCHAR fl
ENCODING 64258
SWIDTH 774 0
DWIDTH 22 0
BBX 21 22 0 0
BITMAP
00C1C0
07E3C0
0FE3E0
0FE3E0
1FE3E0
1F03E0
1F03E0
3FE3E0
7FF3E0
FFF3E0
FFF3E0
7FF3E0
1F03E0
1F03E0
1F03E0
1F03E0
1F03E0
1F03F8
1F03F8
1F03F8
1F03F8
1E00F8
ENDCHAR
STARTCHAR f_f_i
ENCODING 64259
SWIDTH 1059 0
DWIDTH 30 0
BBX 29 22 0 0
BITMAP
00E07020
07E1F8F0
0FE3F8F8
0FE7F8F8
1FE7F8F0
1F07C000
1F07C000
7FFFF860
7FFFFCF0
FFFFFCF8
FFFFFCF8
7FFFFCF8
1F07C0F8
1F07C0F8
1F07C0F8
1F07C0F8
1F07C0F8
1F07C0F8
1F07C0F8
1F07C0F8
1F07C0F8
0E0780F0
ENDCHAR
STARTCHAR .notdef
ENCODING -1
SWIDTH 500 0
DWIDTH 14 0
BBX 1 1 0 0
BITMAP
00
ENDCHAR
STARTCHAR .null
ENCODING -1
SWIDTH 0 0
DWIDTH 0 0
BBX 1 1 0 0
BITMAP
00
ENDCHAR
STARTCHAR nonmarkingreturn
ENCODING -1
SWIDTH 333 0
DWIDTH 9 0
BBX 1 1 0 0
BITMAP
00
ENDCHAR
STARTCHAR f_t
ENCODING -1
SWIDTH 814 0
DWIDTH 23 0
BBX 22 22 0 0
BITMAP
00E000
07E000
0FE380
0FE7C0
1FE7C0
1F07C0
1F07C0
7FFFF8
7FFFFC
FFFFFC
FFFFFC
7FFFFC
1F07C0
1F07C0
1F07C0
1F07C0
1F07C0
1F07F0
1F03F8
1F03FC
1F01FC
0E00F8
ENDCHAR
STARTCHAR t_t
ENCODING -1
SWIDTH 794 0
DWIDTH 22 0
BBX 22 20 0 0
BITMAP
0E0780
1F0780
1F07C0
1F07C0
1F07C0
7FFFF8
7FFFFC
FFFFFC
FFFFFC
7FFFF8
1F07C0
1F07C0
1F07C0
1F07C0
1F07C0
1FC7F0
1FE7F8
0FE7F8
07E3F8
03E0F8
ENDCHAR
STARTCHAR l_l
ENCODING -1
SWIDTH 626 0
DWIDTH 18 0
BBX 16 22 1 0
BITMAP
7070
F8F0
F8F8
F8F8
F8F8
F8F8
F8F8
F8F8
F8F8
F8F8
F8F8
F8F8
F8F8
F8F8
F8F8
F8F8
F8F8
FEFE
FEFF
7EFF
7E7F
1C1E
ENDCHAR
STARTCHAR j_j
ENCODING -1
SWIDTH 521 0
DWIDTH 15 0
BBX 17 29 -4 -7
BITMAP
010000
07C780
07C780
07C780
07C780
000000
000000
038300
07C780
07C780
07C780
07C780
07C780
07C780
07C780
07C780
07C780
07C780
07C780
07C780
07C780
07C780
07C780
0FCF80
7FBF80
FFBF80
FF3F00
FC3E00
000800
ENDCHAR
ENDFONT
